<svg width="394" height="57" viewBox="0 0 394 57" fill="none" xmlns="http://www.w3.org/2000/svg">
<path d="M28.8135 7.62988C24.0449 7.05469 19.3691 6.77637 14.7861 6.83203H14.4893C10.7598 6.8877 7.12305 7.16602 3.5791 7.62988C2.74414 7.75977 2.07617 8.14941 1.59375 8.78027C1.12988 9.39258 0.925781 10.1348 1.01855 10.9697C1.25977 12.4727 2.48438 13.5488 3.96875 13.5488C4.09863 13.5488 4.22852 13.5303 4.3584 13.5117C6.71484 13.1963 9.1084 12.9922 11.5576 12.8623C11.168 20.2656 11.3721 27.873 12.1699 35.7031C12.3555 36.9834 12.8564 37.7998 13.6914 38.1709C14.5264 38.542 15.3057 38.4678 16.0664 37.9482C16.8271 37.4473 17.1611 36.501 17.0869 35.1465C16.8086 31.8994 16.7529 28.2812 16.8828 24.2734C17.0127 20.2471 17.2168 16.4248 17.458 12.7881C20.9463 12.8438 24.4902 13.085 28.1084 13.5303C28.9434 13.6045 29.667 13.4004 30.2793 12.918C30.9102 12.417 31.2812 11.7676 31.4111 10.9326C31.4854 10.0977 31.2812 9.35547 30.7988 8.74316C30.3164 8.13086 29.6484 7.75977 28.8135 7.62988ZM41.7832 20.6553C40.4658 18.8555 38.8516 17.6494 36.9404 17.0371C34.918 16.3877 32.8955 16.5361 30.9102 17.5195C30.7617 17.5938 30.6133 17.668 30.4648 17.7607C30.7617 14.7549 31.0586 12.3799 31.3555 10.6172C31.4854 9.78223 31.2998 9.05859 30.8359 8.40918C30.3721 7.75977 29.7412 7.37012 28.9248 7.20312C28.0898 7.0918 27.3662 7.25879 26.7168 7.72266C26.0674 8.18652 25.6777 8.81738 25.5107 9.63379C24.8242 15.0332 24.5088 19.5605 24.5645 23.1973C24.6201 26.834 24.9912 31.1758 25.7148 36.2227C25.9561 37.4844 26.457 38.2822 27.1992 38.5977C27.9414 38.9131 28.6094 38.8203 29.2217 38.2822C29.834 37.7441 30.0566 36.835 29.9268 35.5547C29.7227 34.2373 29.6484 32.4561 29.6855 30.2109V30.1924C29.7041 30.1738 29.7041 30.1553 29.7041 30.1367C29.9453 27.9658 30.4834 26.1289 31.2812 24.6074C32.0977 23.0859 32.8955 22.1211 33.6748 21.7129C34.2129 21.4531 34.7324 21.416 35.2705 21.583C35.9385 21.7871 36.5508 22.2695 37.0889 23.0303C37.8682 24.125 38.2764 25.7207 38.332 27.8174C38.3877 29.9141 37.9053 32.1777 36.9219 34.5898C36.6064 35.3877 36.6064 36.1484 36.9033 36.8721C37.2002 37.5957 37.7197 38.1338 38.4805 38.4863C39.2783 38.8018 40.0391 38.8018 40.7627 38.5049C41.4863 38.208 42.0244 37.6699 42.377 36.9092C43.8057 33.4395 44.3809 30.3223 44.1396 27.5391C43.8984 24.7373 43.1006 22.4551 41.7832 20.6553ZM62.3789 29.9141C62.1191 30.5449 61.5254 31.1943 60.5791 31.8809C59.6514 32.5488 58.3711 32.9199 56.7197 32.9941C53.1943 32.8643 50.7637 28.8379 51.3574 26.0361C52.7119 26.3145 54.2148 26.5186 55.8477 26.6113C57.4805 26.7041 59.0391 26.6299 60.5049 26.3701C61.9893 26.1104 63.1768 25.5723 64.0859 24.7559C64.9951 23.9395 65.3848 22.752 65.2734 21.2119C64.9951 19.5049 64.1045 18.1689 62.583 17.1855C61.0615 16.2021 59.3174 15.627 57.3691 15.4229C55.4209 15.2188 53.6953 15.46 52.1553 16.1094C48.0547 18.0205 46.0693 21.6387 45.9766 26.0918C45.958 27.3535 46.1064 28.5596 46.4033 29.6914C46.9971 32.3076 48.0732 34.2744 49.9287 35.7402C51.71 37.0762 53.8066 37.6143 55.9775 37.8184C58.1113 37.9854 60.1152 37.5957 61.9893 36.6123C63.8633 35.6289 65.3848 33.9219 66.5537 31.4727C67.0918 30.1738 67.1104 29.1904 66.6279 28.5039C66.1641 27.8174 65.4961 27.5762 64.624 27.7432C63.752 27.9102 63.0098 28.6338 62.3789 29.9141ZM54.8086 21.0264C55.4209 20.748 56.0518 20.6553 56.6826 20.7109C57.2949 20.7666 57.833 20.9521 58.2783 21.249C58.6309 21.4902 58.8164 21.7129 58.8535 21.9541C58.2227 22.8076 55.291 22.0098 54.252 21.7129C54.0664 21.6572 53.9551 21.6387 53.8994 21.6201C54.1777 21.3604 54.4932 21.1562 54.8086 21.0264ZM106.187 8.00098C101.418 7.42578 96.7607 7.14746 92.1777 7.20312H91.8438C88.1328 7.25879 84.4961 7.53711 80.9521 8.00098C80.1172 8.13086 79.4492 8.52051 78.9668 9.15137C78.5029 9.76367 78.2988 10.5059 78.3916 11.3408C78.6328 12.8438 79.8574 13.9199 81.3418 13.9199C81.4717 13.9199 81.6016 13.9014 81.7314 13.8828C84.0879 13.5674 86.4814 13.3633 88.9307 13.2334C88.875 14.1055 88.8379 14.9775 88.8193 15.8311C87.0566 15.9609 85.3311 16.1279 83.624 16.3691C82.7891 16.499 82.1396 16.8701 81.6572 17.501C81.1748 18.1318 80.9707 18.8555 81.0635 19.6904C81.3047 21.2305 82.5293 22.2695 84.0137 22.2695C84.1436 22.2695 84.2734 22.2695 84.4033 22.251C85.832 22.0654 87.2793 21.917 88.7451 21.7871C88.7822 26.2217 89.042 30.9717 89.543 36.0742C89.7285 37.3545 90.2295 38.1709 91.0645 38.542C91.8994 38.9131 92.6787 38.8389 93.4395 38.3193C94.2002 37.8184 94.5342 36.8721 94.46 35.5176C94.1445 31.3428 94.1074 26.6855 94.3672 21.5088C96.5938 21.4717 98.8389 21.5088 101.103 21.6387H101.27C102.067 21.6201 102.754 21.3604 103.311 20.8408C103.867 20.3027 104.183 19.6348 104.238 18.8369C104.257 18.002 103.997 17.2783 103.459 16.7031C102.939 16.1094 102.253 15.7754 101.418 15.7012C99.1543 15.5898 96.9092 15.5527 94.6826 15.5713C94.7383 14.7363 94.7754 13.9385 94.8311 13.1406C98.3193 13.1963 101.863 13.4561 105.481 13.8828C106.316 13.9756 107.04 13.7715 107.652 13.2891C108.283 12.7881 108.654 12.1387 108.784 11.3037C108.858 10.4688 108.654 9.72656 108.153 9.11426C107.671 8.50195 107.021 8.13086 106.187 8.00098ZM115.111 22.7705C115.167 21.9355 114.926 21.2119 114.425 20.6182C113.924 20.0059 113.256 19.6533 112.421 19.5605C111.586 19.5049 110.862 19.7461 110.25 20.2471C109.656 20.748 109.322 21.416 109.229 22.251C108.988 24.9229 108.951 27.1123 109.155 28.8379C109.359 30.5635 109.749 32.5303 110.287 34.7383C110.398 35.2207 110.51 35.7402 110.64 36.2783C110.955 37.4473 111.512 38.2266 112.328 38.5791C113.163 38.9316 113.887 38.8389 114.499 38.2822C115.111 37.7441 115.278 36.6865 115 35.1465C114.907 34.5713 114.852 33.4395 114.852 31.7324C114.852 30.0068 114.87 28.2627 114.926 26.5C114.981 24.7373 115.056 23.4941 115.111 22.7705ZM113.256 10.4688C112.421 10.376 111.697 10.5801 111.066 11.0811C110.454 11.5635 110.083 12.2314 109.972 13.0664L109.953 13.252C109.916 13.4375 109.897 13.5303 109.86 14.0498C109.823 14.5137 109.805 14.5137 109.805 14.5322V14.5508V14.6621C109.786 14.7178 109.768 14.8848 109.749 15.1445C109.693 15.9795 109.935 16.7031 110.436 17.3154C110.937 17.9277 111.623 18.2617 112.458 18.3545C113.293 18.4102 114.017 18.1689 114.629 17.668C115.241 17.167 115.575 16.499 115.668 15.6641C115.668 15.627 115.668 15.5713 115.687 15.4971C115.705 15.3857 115.705 15.2373 115.724 15.0332L115.742 14.792V14.6436C115.761 14.5508 115.761 14.5322 115.761 14.4766C115.779 14.4209 115.779 14.3096 115.835 13.9385L115.854 13.7529C115.946 12.918 115.742 12.1758 115.241 11.5635C114.74 10.9512 114.091 10.5801 113.256 10.4688ZM135.447 15.2744C134.612 15.1445 133.889 15.3115 133.239 15.7754C132.59 16.2393 132.2 16.8701 132.033 17.6865C131.885 18.4844 131.495 19.7461 130.846 21.4902C130.196 23.2158 129.398 25.0342 128.452 26.9453C127.506 28.8564 126.522 30.4521 125.483 31.7324C125.391 31.8252 125.316 31.918 125.242 32.0107C124.778 32.623 124.444 32.9199 124.277 32.9014C124.11 32.8828 123.925 32.4189 123.739 31.5283C123.146 28.9307 122.867 24.2549 122.867 18.1875C122.867 17.3711 122.57 16.666 121.995 16.0908C121.42 15.5156 120.715 15.2188 119.898 15.2188C119.082 15.2188 118.377 15.5156 117.802 16.0908C117.227 16.666 116.93 17.3711 116.93 18.1875C116.93 22.7705 117.171 26.4258 117.635 29.1533C118.117 31.8623 118.767 33.8291 119.564 35.0723C121.197 37.6143 123.257 38.3193 125.613 37.5957C127.246 37.0576 128.786 35.8887 130.215 34.126C131.458 32.6045 132.627 30.8232 133.722 28.7822C134.816 26.7227 135.744 24.7744 136.486 22.9189C137.247 21.0635 137.711 19.6533 137.878 18.6885C137.989 17.8535 137.822 17.1299 137.358 16.4805C136.913 15.8311 136.282 15.4414 135.447 15.2744ZM154.336 29.9141C154.076 30.5449 153.482 31.1943 152.536 31.8809C151.608 32.5488 150.328 32.9199 148.677 32.9941C145.151 32.8643 142.721 28.8379 143.314 26.0361C144.669 26.3145 146.172 26.5186 147.805 26.6113C149.438 26.7041 150.996 26.6299 152.462 26.3701C153.946 26.1104 155.134 25.5723 156.043 24.7559C156.952 23.9395 157.342 22.752 157.23 21.2119C156.952 19.5049 156.062 18.1689 154.54 17.1855C153.019 16.2021 151.274 15.627 149.326 15.4229C147.378 15.2187 145.652 15.46 144.112 16.1094C140.012 18.0205 138.026 21.6387 137.934 26.0918C137.915 27.3535 138.063 28.5596 138.36 29.6914C138.954 32.3076 140.03 34.2744 141.886 35.7402C143.667 37.0762 145.764 37.6143 147.935 37.8184C150.068 37.9854 152.072 37.5957 153.946 36.6123C155.82 35.6289 157.342 33.9219 158.511 31.4727C159.049 30.1738 159.067 29.1904 158.585 28.5039C158.121 27.8174 157.453 27.5762 156.581 27.7432C155.709 27.9102 154.967 28.6338 154.336 29.9141ZM146.766 21.0264C147.378 20.748 148.009 20.6553 148.64 20.7109C149.252 20.7666 149.79 20.9521 150.235 21.249C150.588 21.4902 150.773 21.7129 150.811 21.9541C150.18 22.8076 147.248 22.0098 146.209 21.7129C146.023 21.6572 145.912 21.6387 145.856 21.6201C146.135 21.3604 146.45 21.1562 146.766 21.0264ZM190.221 9.31836C189.052 7.66699 187.549 6.55371 185.749 5.97852C183.949 5.40332 182.094 5.3291 180.22 5.77441C178.346 6.20117 176.731 7.12891 175.34 8.55762C174.412 9.54102 173.744 10.6914 173.317 11.9717C171.666 17.2041 175.6 20.9521 180.22 22.6777C181.24 23.0674 182.131 23.6982 182.873 24.5703C183.504 25.3125 183.894 26.2031 184.061 27.2236C184.543 30.916 180.776 33.9219 178.049 33.2354C175.173 32.5117 174.338 28.207 176.268 25.8691C179.904 21.5459 174.301 19.2822 172.39 22.9375C168.734 30.1182 169.811 36.3525 176.843 38.375C179.57 39.0244 182.038 38.9131 184.228 38.0781C186.436 37.2432 188.124 35.8145 189.293 33.792C190.462 31.7695 190.889 29.3018 190.536 26.3887C190.184 24.0508 189.312 22.0654 187.92 20.4141C186.38 18.6143 184.58 17.334 182.521 16.5547C180.665 15.8125 179.663 15.1074 179.533 14.458C179.292 13.5117 179.459 12.7695 180.016 12.2314C180.572 11.6934 181.259 11.3779 182.094 11.3037C182.929 11.2295 183.652 11.4336 184.265 11.8975C184.877 12.3613 185.118 13.1406 184.988 14.2168C184.951 14.2354 184.97 14.2354 184.97 14.2354V14.2725C184.803 15.1816 184.97 16.0166 185.471 16.7402C185.972 17.4639 186.658 17.9092 187.567 18.1133C188.477 18.2617 189.293 18.0947 190.017 17.6123C190.74 17.1113 191.204 16.4248 191.408 15.5156L191.445 15.2559C191.798 13.252 191.464 11.1738 190.221 9.31836ZM209.146 29.9141C208.887 30.5449 208.293 31.1943 207.347 31.8809C206.419 32.5488 205.139 32.9199 203.487 32.9941C199.962 32.8643 197.531 28.8379 198.125 26.0361C199.479 26.3145 200.982 26.5186 202.615 26.6113C204.248 26.7041 205.807 26.6299 207.272 26.3701C208.757 26.1104 209.944 25.5723 210.854 24.7559C211.763 23.9395 212.152 22.752 212.041 21.2119C211.763 19.5049 210.872 18.1689 209.351 17.1855C207.829 16.2021 206.085 15.627 204.137 15.4229C202.188 15.2187 200.463 15.46 198.923 16.1094C194.822 18.0205 192.837 21.6387 192.744 26.0918C192.726 27.3535 192.874 28.5596 193.171 29.6914C193.765 32.3076 194.841 34.2744 196.696 35.7402C198.478 37.0762 200.574 37.6143 202.745 37.8184C204.879 37.9854 206.883 37.5957 208.757 36.6123C210.631 35.6289 212.152 33.9219 213.321 31.4727C213.859 30.1738 213.878 29.1904 213.396 28.5039C212.932 27.8174 212.264 27.5762 211.392 27.7432C210.52 27.9102 209.777 28.6338 209.146 29.9141ZM201.576 21.0264C202.188 20.748 202.819 20.6553 203.45 20.7109C204.062 20.7666 204.601 20.9521 205.046 21.249C205.398 21.4902 205.584 21.7129 205.621 21.9541C204.99 22.8076 202.059 22.0098 201.02 21.7129C200.834 21.6572 200.723 21.6387 200.667 21.6201C200.945 21.3604 201.261 21.1562 201.576 21.0264ZM225.679 14.8291C224.287 14.6992 222.951 14.792 221.634 15.126C220.168 15.4785 218.925 15.998 217.867 16.7031C216.81 17.4082 216.123 18.4473 215.808 19.8203C215.604 21.0264 215.845 21.8613 216.55 22.3066C217.273 22.7334 218.108 22.8447 219.073 22.6035C220.057 22.3623 220.836 21.8242 221.411 21.0264C221.652 20.5811 222.209 20.2285 223.044 19.9873C223.693 19.8203 224.38 19.7832 225.085 19.8574C227.015 20.0986 228.035 21.3232 228.48 23.0859C225.679 21.9541 223.007 21.8428 220.483 22.7705C218.758 23.5684 217.478 24.8672 216.661 26.7041C215.863 28.5225 215.622 30.3408 215.938 32.1592C216.29 33.7734 217.088 35.0166 218.294 35.8887C219.5 36.7422 220.91 37.2617 222.524 37.4287C224.139 37.5957 225.734 37.4473 227.274 36.9834C227.33 37.8926 227.738 38.5791 228.777 38.7461C230.354 38.9688 231.486 37.9668 231.765 36.3896C232.878 31.9922 233.23 27.1309 233.286 22.6035C233.268 20.21 232.562 18.373 231.171 17.0928C229.779 15.8125 227.961 15.0518 225.679 14.8291ZM222.209 27.001C222.858 26.7783 223.768 26.7412 224.899 26.8711C226.05 27.001 226.903 27.2607 227.46 27.6318C227.961 27.9844 228.295 28.4297 228.462 28.9492C228.295 30.248 228.146 31.2871 227.998 32.085L227.942 32.4004C226.922 33.4209 225.827 33.8848 224.677 33.8291C223.526 33.7549 222.543 33.3467 221.708 32.6045C220.892 31.8623 220.465 30.9717 220.428 29.9326C220.409 28.8936 221.003 27.9102 222.209 27.001ZM243.38 19.8018C243.695 19.5605 244.011 19.4492 244.345 19.4307C244.382 19.4121 244.419 19.4121 244.456 19.4121C245.143 19.4307 245.885 19.7275 246.683 20.3398C247.48 20.9521 248.148 21.8799 248.705 23.1416C249.058 23.9023 249.614 24.4219 250.338 24.7002C251.08 24.9785 251.841 24.96 252.62 24.6445C253.381 24.292 253.882 23.7354 254.16 23.0117C254.438 22.2695 254.42 21.5088 254.104 20.7295C253.065 18.3916 251.674 16.7402 249.948 15.7939C248.223 14.8477 246.293 14.458 244.122 14.6064C242.378 14.7363 240.894 15.4414 239.65 16.6846C238.407 17.9277 237.665 19.3936 237.424 21.1006C237.331 22.4551 237.665 23.5869 238.407 24.5146C239.149 25.4424 240.151 26.2402 241.413 26.9082C242.1 27.3535 242.897 27.7246 243.807 28.04L244.753 28.4297C246.274 28.8379 248.575 31.6953 247.462 33.2725C247.221 33.6064 246.887 33.8662 246.46 34.0703C246.145 34.1816 245.811 34.2744 245.458 34.3672C244.586 34.5156 243.751 34.293 242.953 33.7178C242.155 33.124 241.673 32.0293 241.506 30.415C241.432 29.5801 241.098 28.8936 240.504 28.374C239.91 27.8545 239.187 27.6133 238.352 27.6504C237.517 27.7432 236.849 28.0771 236.329 28.6709C235.81 29.2461 235.568 29.9697 235.587 30.8047C235.81 33.6064 237.034 35.5918 238.797 36.9834C240.374 38.1709 242.1 38.7646 243.974 38.7832C245.848 38.8018 247.573 38.3193 249.113 37.373C250.672 36.4268 251.748 35.1279 252.323 33.458C252.898 31.7881 252.676 29.8584 251.655 27.6875C251.006 26.4814 250.152 25.5908 249.113 25.0156C248.074 24.4404 247.054 24.0137 246.07 23.7168C244.753 23.29 243.751 22.9004 243.38 22.2139C242.879 21.0449 242.879 20.2471 243.38 19.8018ZM273.81 18.9297C272.604 17.3525 271.249 16.2207 269.746 15.5713C267.983 14.8105 266.239 14.6064 264.477 14.9219C262.807 15.2373 261.267 15.9238 259.856 16.9814C258.149 18.2803 256.832 19.9502 255.886 21.9912C255.125 23.7168 254.698 25.665 254.624 27.873C254.568 29.8213 254.921 31.6768 255.682 33.4395C256.535 35.4062 258.02 36.8906 260.135 37.9111C261.285 38.4492 262.64 38.7275 264.217 38.7832C267.612 38.8389 270.247 37.9668 272.195 36.4824C273.68 35.332 274.756 33.959 275.442 32.3447C276.092 30.8047 276.426 29.209 276.444 27.5391C276.444 24.2178 275.572 21.3418 273.81 18.9297ZM260.524 27.9844C260.58 26.6299 260.821 25.4238 261.285 24.4033C261.786 23.3086 262.491 22.3994 263.4 21.7129C264.05 21.2119 264.755 20.8965 265.479 20.7666C266.814 20.6367 267.965 20.9707 268.93 21.8057C269.913 22.6406 270.618 23.7168 271.045 25.0527C271.49 26.3701 271.583 27.7246 271.342 29.0977C271.101 30.4521 270.433 31.6025 269.338 32.5303C268.243 33.458 266.647 33.9404 264.551 33.959C261.508 33.8848 260.487 30.5449 260.524 27.9844ZM295.667 20.6924C294.331 18.8926 292.717 17.6865 290.824 17.0742C288.876 16.4434 286.928 16.5732 284.998 17.4453C285.017 17.3525 285.035 17.2412 285.054 17.1484C285.184 16.3135 285.017 15.5713 284.553 14.9219C284.089 14.2725 283.458 13.8828 282.642 13.7158C281.807 13.5859 281.064 13.7529 280.415 14.2168C279.766 14.6621 279.376 15.293 279.209 16.1279C278.374 20.0986 278.021 23.4756 278.133 26.2588C278.244 29.042 278.671 32.3262 279.395 36.1299C279.71 37.5215 280.267 38.3564 281.102 38.6348C281.937 38.9316 282.679 38.7832 283.347 38.1895C284.033 37.6143 284.293 36.6865 284.126 35.4062C283.903 33.9775 283.811 32.2148 283.848 30.0996C284.089 27.9287 284.59 26.1104 285.313 24.6074C286.037 23.1045 286.798 22.1582 287.559 21.75C288.097 21.4902 288.616 21.4531 289.154 21.6201C289.822 21.8242 290.435 22.3066 290.973 23.0674C291.733 24.1621 292.142 25.7578 292.197 27.8545C292.253 29.9512 291.789 32.2148 290.806 34.627C290.49 35.4248 290.49 36.1855 290.787 36.9092C291.084 37.6328 291.604 38.1709 292.364 38.5234C293.144 38.8389 293.904 38.8389 294.628 38.542C295.37 38.2451 295.908 37.707 296.261 36.9463C297.689 33.4766 298.265 30.3594 298.023 27.5762C297.782 24.7744 296.984 22.4922 295.667 20.6924ZM330.921 27.001C330.179 26.5371 329.399 26.4072 328.602 26.5742C327.804 26.7412 327.173 27.168 326.672 27.873C324.872 30.6191 323.035 32.4189 321.328 32.7158C319.565 32.957 318.192 32.4375 317.172 31.1387C316.17 29.8398 315.595 28.1514 315.446 26.0547C315.316 23.958 315.65 21.8613 316.485 19.7646C317.32 17.6494 318.675 15.9053 320.567 14.5137C321.569 13.8271 322.534 13.4189 323.443 13.2891C324.13 13.1963 324.705 13.2705 325.15 13.5303C325.633 13.8086 325.985 14.3652 326.227 15.2187C326.468 16.0537 326.932 16.6846 327.637 17.0928C328.342 17.501 329.121 17.6123 329.956 17.4268C330.791 17.1855 331.422 16.7031 331.83 16.0166C332.257 15.3115 332.368 14.5322 332.164 13.6787C331.44 11.1367 330.16 9.31836 328.286 8.24219C326.561 7.25879 324.668 6.90625 322.571 7.20312C320.734 7.48145 318.897 8.22363 317.098 9.4668C315.391 10.6357 313.851 12.2129 312.496 14.2168C311.142 16.2021 310.14 18.5771 309.49 21.3232C308.989 23.6611 308.934 25.8691 309.36 27.9658C309.787 30.0625 310.548 31.8994 311.661 33.4951C312.904 35.2578 314.463 36.5938 316.318 37.4658C318.192 38.3379 320.196 38.6162 322.367 38.2637C325.633 37.7256 328.917 35.5361 331.793 31.2314C332.257 30.5078 332.387 29.7471 332.22 28.9492C332.053 28.1514 331.626 27.502 330.921 27.001ZM343.167 14.8291C341.775 14.6992 340.439 14.792 339.122 15.126C337.656 15.4785 336.413 15.998 335.355 16.7031C334.298 17.4082 333.611 18.4473 333.296 19.8203C333.092 21.0264 333.333 21.8613 334.038 22.3066C334.762 22.7334 335.597 22.8447 336.562 22.6035C337.545 22.3623 338.324 21.8242 338.899 21.0264C339.141 20.5811 339.697 20.2285 340.532 19.9873C341.182 19.8203 341.868 19.7832 342.573 19.8574C344.503 20.0986 345.523 21.3232 345.969 23.0859C343.167 21.9541 340.495 21.8428 337.972 22.7705C336.246 23.5684 334.966 24.8672 334.149 26.7041C333.352 28.5225 333.11 30.3408 333.426 32.1592C333.778 33.7734 334.576 35.0166 335.782 35.8887C336.988 36.7422 338.398 37.2617 340.013 37.4287C341.627 37.5957 343.223 37.4473 344.763 36.9834C344.818 37.8926 345.227 38.5791 346.266 38.7461C347.843 38.9688 348.975 37.9668 349.253 36.3896C350.366 31.9922 350.719 27.1309 350.774 22.6035C350.756 20.21 350.051 18.373 348.659 17.0928C347.268 15.8125 345.449 15.0518 343.167 14.8291ZM339.697 27.001C340.347 26.7783 341.256 26.7412 342.388 26.8711C343.538 27.001 344.392 27.2607 344.948 27.6318C345.449 27.9844 345.783 28.4297 345.95 28.9492C345.783 30.248 345.635 31.2871 345.486 32.085L345.431 32.4004C344.41 33.4209 343.315 33.8848 342.165 33.8291C341.015 33.7549 340.031 33.3467 339.196 32.6045C338.38 31.8623 337.953 30.9717 337.916 29.9326C337.897 28.8936 338.491 27.9102 339.697 27.001ZM369.57 31.7324C368.494 31.1201 367.121 30.0068 365.451 28.3926C363.8 26.7783 362.464 25.2012 361.462 23.6797C364.189 22.5479 366.973 21.6201 369.849 20.8965C370.591 20.5254 371.092 19.9687 371.37 19.2266C371.648 18.4658 371.611 17.7051 371.277 16.9258C370.888 16.1836 370.312 15.6826 369.552 15.4229C368.791 15.1445 368.03 15.1816 367.27 15.5156C364.264 16.833 361.388 18.4102 358.66 20.2471C359.013 16.1836 359.384 12.9736 359.773 10.6543C359.903 9.81934 359.736 9.0957 359.272 8.44629C358.809 7.79687 358.178 7.40723 357.343 7.24023C356.508 7.12891 355.784 7.2959 355.135 7.75977C354.485 8.22363 354.096 8.85449 353.929 9.68945C353.242 15.0889 352.982 19.5791 353.131 23.1973C353.279 26.8154 353.725 31.1387 354.448 36.167C354.689 37.4473 355.172 38.2451 355.858 38.5791C356.545 38.9131 357.176 38.8203 357.732 38.3008C358.289 37.7812 358.493 36.8721 358.345 35.5918C358.066 33.5508 358.029 30.6562 358.215 26.9268C359.848 31.1572 362.742 34.7197 366.731 36.9277C368.234 37.6885 369.923 37.2061 370.758 35.7402C371.147 34.998 371.222 34.2559 370.999 33.4951C370.776 32.7344 370.294 32.1592 369.57 31.7324ZM387.197 29.9141C386.938 30.5449 386.344 31.1943 385.397 31.8809C384.47 32.5488 383.189 32.9199 381.538 32.9941C378.013 32.8643 375.582 28.8379 376.176 26.0361C377.53 26.3145 379.033 26.5186 380.666 26.6113C382.299 26.7041 383.857 26.6299 385.323 26.3701C386.808 26.1104 387.995 25.5723 388.904 24.7559C389.813 23.9395 390.203 22.752 390.092 21.2119C389.813 19.5049 388.923 18.1689 387.401 17.1855C385.88 16.2021 384.136 15.627 382.188 15.4229C380.239 15.2187 378.514 15.46 376.974 16.1094C372.873 18.0205 370.888 21.6387 370.795 26.0918C370.776 27.3535 370.925 28.5596 371.222 29.6914C371.815 32.3076 372.892 34.2744 374.747 35.7402C376.528 37.0762 378.625 37.6143 380.796 37.8184C382.93 37.9854 384.934 37.5957 386.808 36.6123C388.682 35.6289 390.203 33.9219 391.372 31.4727C391.91 30.1738 391.929 29.1904 391.446 28.5039C390.982 27.8174 390.314 27.5762 389.442 27.7432C388.57 27.9102 387.828 28.6338 387.197 29.9141ZM379.627 21.0264C380.239 20.748 380.87 20.6553 381.501 20.7109C382.113 20.7666 382.651 20.9521 383.097 21.249C383.449 21.4902 383.635 21.7129 383.672 21.9541C383.041 22.8076 380.109 22.0098 379.07 21.7129C378.885 21.6572 378.773 21.6387 378.718 21.6201C378.996 21.3604 379.312 21.1562 379.627 21.0264Z" fill="#2B4F60"/>
</svg>
